<?xml version="1.0" encoding="UTF-8" standalone="no"?>
<svg
   width="149.48657"
   height="160.48633"
   viewBox="0 0 149.48659 160.48633"
   version="1.1"
   id="svg3"
   xml:space="preserve"
   xmlns="http://www.w3.org/2000/svg"
   xmlns:svg="http://www.w3.org/2000/svg"><defs
     id="defs3" /><path
     style="fill:none;stroke:#acbdf1;stroke-width:18.2504;stroke-linecap:butt;stroke-linejoin:miter;stroke-miterlimit:3.8;stroke-dasharray:none;stroke-opacity:1;paint-order:markers fill stroke"
     d="m 118.01247,39.672931 h 27.9533 L 74.753366,9.8909313 3.5198668,39.672931 H 31.473166"
     id="path3-8-67-675" /><path
     style="fill:none;stroke:#acbdf1;stroke-width:17.9686;stroke-linecap:butt;stroke-linejoin:round;stroke-miterlimit:3.8;stroke-dasharray:none;stroke-opacity:1;paint-order:markers fill stroke"
     d="M 145.97777,151.50213 H 3.5087668"
     id="path8-67-3-3" /><path
     style="fill:none;stroke:#acbdf1;stroke-width:17.9686;stroke-linecap:butt;stroke-linejoin:round;stroke-miterlimit:3.8;stroke-dasharray:none;stroke-opacity:1;paint-order:markers fill stroke"
     d="M 129.18227,131.84943 H 20.355966"
     id="path8-67-3-5-56" /><path
     id="path43-29"
     style="fill:#acbdf1;fill-opacity:1;stroke:none;stroke-width:0.3708;stroke-miterlimit:3.8;stroke-dasharray:none;stroke-opacity:1;paint-order:stroke fill markers"
     d="m 36.721166,48.848631 v 15.5382 h 3.6737 l -5.2481,40.049199 h -3.6736 v 15.3675 h 16.1371 v -15.3675 h -3.4112 l 1.1808,-8.849099 h 7.4143 v 8.849099 h -3.6736 v 15.3675 h 15.7831 v -15.3675 h -3.0176 V 64.386831 h 0.3892 v -15.5359 h -0.3892 z m 12.8028,15.6612 h 3.2702 v 19.4231 h -5.9711 z" /><path
     d="m 66.681366,48.702531 h 18.0505 v 15.6843 h -3.2513 l 0.044,40.079099 h 3.2513 l -0.044,15.3296 h -17.9763 l 0.044,-15.3296 h 3.2518 l -0.044,-40.079099 h -3.326 z"
     style="fill:#acbdf1;fill-opacity:1;fill-rule:nonzero;stroke:none;stroke-width:0.753105"
     id="path1-6-1-12" /><path
     style="font-weight:900;font-size:32px;line-height:0.9;font-family:'Swiss 721';-inkscape-font-specification:'Swiss 721 Heavy';text-align:center;letter-spacing:-1.11px;white-space:pre;fill:#acbdf1;fill-opacity:1;stroke-width:4.74808;stroke-linecap:round;stroke-linejoin:round;stroke-miterlimit:3.8;paint-order:markers fill stroke"
     d="m 101.70747,78.868731 c 1.099,0 2.0384,-0.066 2.8184,-0.1968 0.8153,-0.197 1.4889,-0.5578 2.0206,-1.0829 0.5318,-0.5251 0.9218,-1.2471 1.1699,-2.1658 0.2836,-0.9189 0.4254,-2.1658 0.4254,-3.7408 0,-1.6407 -0.1417,-2.9205 -0.4254,-3.8393 -0.2481,-0.9845 -0.6381,-1.7061 -1.1699,-2.1656 -0.5317,-0.5251 -1.2053,-0.8533 -2.0206,-0.9845 -0.8154,-0.1969 -1.7549,-0.2953 -2.8184,-0.2953 h -1.3372 v 14.471 z m -11.306804,-30.022 h 9.1778 c 2.977904,0 5.548104,0.328 7.710604,0.9844 2.1624,0.5905 4.0413,1.8376 5.6366,3.7406 3.5096,4.3316 5.2644,10.96 5.2644,19.8855 0,7.941 -1.2584,11.6293 -3.7754,15.8294 -2.4816,4.2002 -6.133,6.3003 -10.9543,6.3003 h -3.0901 v 8.878999 h 3.6138 v 15.3405 h -5.264204 -8.3192 -3.8468 l 0.044,-15.3405 h 3.8023 V 64.397731 h -3.8468 v -15.6843 z"
     id="text3-6-4-1-20-7"
     aria-label="AIP" /></svg>
