<?xml version="1.0" encoding="UTF-8" standalone="no"?>
<svg
   width="149.48654"
   height="160.48633"
   viewBox="0 0 149.48656 160.48633"
   version="1.1"
   id="svg3"
   sodipodi:docname="logocontrolplane.svg"
   inkscape:version="1.4.3 (fcd0343856, 2026-01-01)"
   xml:space="preserve"
   xmlns:inkscape="http://www.inkscape.org/namespaces/inkscape"
   xmlns:sodipodi="http://sodipodi.sourceforge.net/DTD/sodipodi-0.dtd"
   xmlns="http://www.w3.org/2000/svg"
   xmlns:svg="http://www.w3.org/2000/svg"><defs
     id="defs3" /><sodipodi:namedview
     id="namedview3"
     pagecolor="#ffffff"
     bordercolor="#000000"
     borderopacity="0.25"
     inkscape:showpageshadow="2"
     inkscape:pageopacity="0.0"
     inkscape:pagecheckerboard="0"
     inkscape:deskcolor="#d1d1d1"
     showguides="true"
     inkscape:zoom="0.5"
     inkscape:cx="2425"
     inkscape:cy="2643"
     inkscape:window-width="2514"
     inkscape:window-height="1011"
     inkscape:window-x="46"
     inkscape:window-y="32"
     inkscape:window-maximized="1"
     inkscape:current-layer="svg3"><sodipodi:guide
       position="74.34101,139.76314"
       orientation="1,0"
       id="guide44"
       inkscape:locked="false" /><sodipodi:guide
       position="2.3266087,109.5252"
       orientation="0,-1"
       id="guide46"
       inkscape:locked="false" /><sodipodi:guide
       position="47.167509,110.89218"
       orientation="0,-1"
       id="guide48"
       inkscape:locked="false" /><sodipodi:guide
       position="129.18221,19.652658"
       orientation="1,0"
       id="guide49"
       inkscape:locked="false" /><sodipodi:guide
       position="114.11621,56.020459"
       orientation="1,0"
       id="guide50"
       inkscape:locked="false" /><sodipodi:guide
       position="416.08742,-1.4767422"
       orientation="1,0"
       id="guide51"
       inkscape:locked="false" /><sodipodi:guide
       position="192.37942,160.4604"
       orientation="0,-1"
       id="guide52"
       inkscape:locked="false" /><sodipodi:guide
       position="330.74992,-2.2140079e-05"
       orientation="0,-1"
       id="guide53"
       inkscape:locked="false" /><sodipodi:guide
       position="160.96171,77.891309"
       orientation="0,-1"
       id="guide54"
       inkscape:locked="false" /><sodipodi:guide
       position="340.56672,68.345379"
       orientation="0,-1"
       id="guide55"
       inkscape:locked="false" /><sodipodi:guide
       position="119.94981,40.679979"
       orientation="0,-1"
       id="guide56"
       inkscape:locked="false" /><sodipodi:guide
       position="31.473109,120.81347"
       orientation="1,0"
       id="guide2"
       inkscape:locked="false" /><sodipodi:guide
       position="119.94981,40.679979"
       orientation="1,0"
       id="guide3"
       inkscape:locked="false" /><inkscape:page
       x="0"
       y="0"
       width="149.48656"
       height="160.48633"
       id="page3"
       margin="0"
       bleed="0" /></sodipodi:namedview><path
     style="fill:none;stroke:#236dae;stroke-width:18.2504;stroke-linecap:butt;stroke-linejoin:miter;stroke-miterlimit:3.8;stroke-dasharray:none;paint-order:markers fill stroke"
     d="m 118.0124,39.672875 h 27.9533 L 74.753304,9.8908752 3.519804,39.672875 h 27.9533"
     id="path3-8-67"
     sodipodi:nodetypes="ccccc"
     inkscape:export-filename="favicon6.png"
     inkscape:export-xdpi="20"
     inkscape:export-ydpi="20" /><path
     style="fill:none;stroke:#236dae;stroke-width:17.9686;stroke-linecap:butt;stroke-linejoin:round;stroke-miterlimit:3.8;stroke-dasharray:none;paint-order:markers fill stroke"
     d="M 145.9777,151.50208 H 3.508704"
     id="path8-67-3"
     sodipodi:nodetypes="cc" /><path
     style="fill:none;stroke:#236dae;stroke-width:17.9686;stroke-linecap:butt;stroke-linejoin:round;stroke-miterlimit:3.8;stroke-dasharray:none;paint-order:markers fill stroke"
     d="M 129.1822,131.84938 H 20.355804"
     id="path8-67-3-5"
     sodipodi:nodetypes="cc" /><path
     id="path43"
     style="fill:#236dae;fill-opacity:1;stroke:none;stroke-width:0.3708;stroke-miterlimit:3.8;stroke-dasharray:none;stroke-opacity:1;paint-order:stroke fill markers"
     d="m 36.721104,48.848575 v 15.5382 h 3.6736 l -5.248,40.049205 h -3.6736 v 15.3675 h 16.1371 v -15.3675 h -3.4112 l 1.1808,-8.849105 h 7.4143 v 8.849105 h -3.6737 v 15.3675 h 15.7832 v -15.3675 h -3.0176 V 64.386775 h 0.3892 v -15.5359 h -0.3892 z m 12.8028,15.6612 h 3.2702 v 19.4231 h -5.9711 z"
     sodipodi:nodetypes="ccccccccccccccccccccccccccc" /><path
     d="m 66.681304,48.702475 h 18.0504 v 15.6843 h -3.2512 l 0.044,40.079105 h 3.2512 l -0.044,15.3296 h -17.9763 l 0.044,-15.3296 h 3.2519 l -0.044,-40.079105 h -3.326 z"
     style="fill:#236dae;fill-opacity:1;fill-rule:nonzero;stroke:none;stroke-width:0.753105"
     id="path1-6-1"
     sodipodi:nodetypes="ccccccccccccc" /><path
     style="font-weight:900;font-size:32px;line-height:0.9;font-family:'Swiss 721';-inkscape-font-specification:'Swiss 721 Heavy';text-align:center;letter-spacing:-1.11px;white-space:pre;fill:#236dae;stroke-width:4.74808;stroke-linecap:round;stroke-linejoin:round;stroke-miterlimit:3.8;paint-order:markers fill stroke"
     d="m 101.7074,78.868675 c 1.099,0 2.0384,-0.066 2.8183,-0.1968 0.8154,-0.197 1.489,-0.5578 2.0207,-1.0829 0.5318,-0.5251 0.9217,-1.2471 1.1699,-2.1658 0.2836,-0.9189 0.4254,-2.1658 0.4254,-3.7408 0,-1.6407 -0.1418,-2.9205 -0.4254,-3.8393 -0.2482,-0.9845 -0.6381,-1.7061 -1.1699,-2.1656 -0.5317,-0.5251 -1.2053,-0.8533 -2.0207,-0.9845 -0.8153,-0.1969 -1.7548,-0.2953 -2.8183,-0.2953 h -1.3372 v 14.471 z m -11.306796,-30.022 h 9.1778 c 2.977896,0 5.547996,0.328 7.710496,0.9844 2.1625,0.5905 4.0414,1.8376 5.6367,3.7406 3.5096,4.3316 5.2644,10.96 5.2644,19.8855 0,7.941 -1.2585,11.6293 -3.7755,15.8294 -2.4815,4.2002 -6.1329,6.3003 -10.9542,6.3003 h -3.0901 v 8.879005 h 3.6138 v 15.3405 h -5.264196 -8.3192 -3.8469 l 0.044,-15.3405 h 3.8024 V 64.397675 h -3.8469 v -15.6843 z"
     id="text3-6-4-1-20"
     aria-label="AIP"
     sodipodi:nodetypes="scscscccsccscsccscsccccccccccccc" /></svg>
